#tb 0: 1/1000
0,          0,          0,        0,      192, 68dccd167f9aa18df0840ebb8715eb68
0,         33,         33,        0,      192, 65c90bb99fdbee7abf21031d34cb18dc
0,         66,         66,        0,      192, 9ef1feb2dcbd4d73f3ee84e9e1cd2668
0,        100,        100,        0,      192, b6281f7c88e9aa132d3902046f8cde5a
0,        133,        133,        0,      192, 4b439b716a294bddf9f56a229705907b
0,        166,        166,        0,      192, d42c0a6f0d24522c90bc2233bc1df2c7
0,        200,        200,        0,      192, 74b763a5a12c4c4a581efb1818a92970
0,        233,        233,        0,      192, 0c3a0916ddfda5abdd3ac382f036e71f
0,        266,        266,        0,      192, 26ff590e8ae726f70e8b36f5eaee7a19
0,        300,        300,        0,      192, 30fa5810995d7132387ea585c4a1cc3a
